<svg width="926" height="196" viewBox="0 0 926 196" fill="none" xmlns="http://www.w3.org/2000/svg">
<g clip-path="url(#clip0_1785_29)">
<path d="M35.9078 43.8703C34.1086 44.2914 35.257 44.2148 33.7641 44.4062C27.3711 45.7844 32.118 47.0094 35.9078 43.8703ZM148.34 46.4352C148.799 46.1289 150.407 44.5594 145.392 43.0281C145.698 44.5977 144.359 44.4445 144.359 45.325C148.072 48.6938 149.603 54.5508 154.35 55.7758C155.269 51.5648 150.139 49.4977 148.34 46.4352ZM32.5008 42.6453C33.075 46.0523 35.6398 39.0469 35.6781 36.5586C34.6828 37.1328 33.6875 37.707 32.6539 38.1664C35.0656 39.3914 32.9602 40.693 30.357 42.6453C25.0742 49.2297 35.2953 37.5156 32.5008 42.6453ZM98 0C43.8703 0 0 43.8703 0 98C0 152.091 43.8703 196 98 196C152.13 196 196 152.091 196 98C196 43.8703 152.13 0 98 0ZM100.603 32.8453L101.062 32.9984C99.225 35.3719 110.633 42.3008 102.441 42.875C94.7844 45.057 105.656 40.8844 99.7227 41.6117C102.862 37.2477 97.2344 37.1711 100.603 32.8453ZM54.1297 39.1234C51.3734 36.8266 42.7219 42.2625 45.7461 40.9609C53.2492 38.0133 46.2438 41.2672 48.0047 44.7891C46.3969 48.1195 47.4687 41.4969 43.4875 45.4398C40.6164 46.0906 33.5727 52.5984 34.4531 50.6078C34.2234 53.7086 26.0695 57.3836 24.9594 62.5516C22.2797 69.7102 24.3086 62.2836 23.8109 59.4891C19.9828 54.6273 13.0156 67.7195 15.0828 72.8875C18.5664 66.7625 18.2984 72.2367 15.7719 74.9547C18.3367 79.6633 13.4367 85.7883 18.2984 89.2719C20.4422 89.7695 24.7297 82.075 22.8539 90.0758C24.1555 83.1469 26.4523 91.7219 30.1656 89.8078C30.3953 93.4445 32.6539 91.7602 33.1516 96.1625C39.3531 95.7031 45.0188 106.192 37.6305 108.183C38.7406 107.877 40.9227 109.829 43.4492 108.336C47.7367 111.743 59.0297 112.164 59.3359 120.586C51.5648 124.299 57.4219 134.482 50.6844 138.119C42.9516 136.97 48.043 147.651 44.7891 146.426C46.0906 154.12 36.9797 145.43 40.5016 149.68C46.9711 153.661 37.6688 152.857 40.5781 155.766C37.3242 155.077 42.607 161.815 43.4875 164.303C48.1578 171.883 39.468 162.619 36.9031 160.092C34.4531 155.192 28.6727 145.813 27.0648 138.119C26.1461 126.941 17.4945 119.438 15.5039 108.527C13.5133 102.441 20.9781 92.6789 16.9586 89.2719C13.475 86.5539 14.8914 77.2516 12.8242 72.3516C17.9922 49.957 34.4148 31.0844 54.1297 19.9062C52.1008 21.3992 65.7289 16.0398 64.1594 17.3414C63.7383 18.2984 72.1219 13.7047 77.175 13.0156C76.6391 13.0922 64.0445 17.6094 67.5281 16.9969C62.1305 19.6383 66.9922 18.1453 69.6719 16.8055C64.3125 20.7484 60.1781 19.6383 54.0914 23.1219C47.9664 24.7297 49.2297 31.0844 44.8656 34.2617C47.4305 34.7211 53.8617 27.6391 57.6133 25.1508C66.2266 20.9781 53.2492 32.7305 61.4414 27.6773C58.6852 30.2422 59.2594 34.3383 57.575 35.4867C56.7328 35.257 60.9055 37.4773 54.1297 39.1234ZM67.5281 21.5141C66.6477 22.7008 65.4227 25.2656 64.6953 23.6961C63.7 24.1938 63.3172 26.3375 61.4414 24.6148C62.5516 23.8109 63.7 21.8969 61.518 23.0836C62.5133 22.0117 71.3945 18.9875 70.8969 17.8391C72.4664 16.8437 72.3133 16.3461 70.5141 16.9586C69.5953 16.6523 72.6961 14.0492 76.8305 13.7047C77.4047 13.7047 77.6344 14.0875 76.6008 13.9727C70.3609 15.8867 73.0406 15.3508 77.2516 13.9727C75.6438 14.8914 74.5336 15.1594 74.2656 15.5805C78.4766 14.0492 74.0359 16.6906 74.993 16.4992C73.8062 17.1117 75.1844 17.3031 72.8875 18.1836C73.3086 17.8391 69.1359 20.6719 71.6242 19.8297C69.2125 22.1266 68.1406 22.1648 67.5281 21.5141ZM71.2031 26.9883C71.2797 23.3133 76.5625 20.9781 75.9117 20.7867C82.4195 17.7242 73.6531 20.9016 78.7828 18.1453C80.6969 17.9539 84.7547 11.8289 90.382 11.4461C96.5836 9.57031 93.7125 11.5609 98.3062 9.8L97.3875 10.5656C96.5836 10.6805 97.5789 12.0969 94.6695 14.2406C94.3633 17.5711 89.1188 16.0398 91.7219 19.6C90.0375 17.1883 87.5109 19.5234 90.6883 19.7531C87.2812 22.3562 79.357 22.8156 75.5672 27.1414C73.1172 30.6633 70.8586 29.5531 71.2031 26.9883ZM98.4211 39.2383C95.818 45.5164 93.2914 38.3195 97.8852 37.1711C99.0336 37.7836 99.493 37.975 98.4211 39.2383ZM88.6211 26.682C87.8555 23.8492 88.468 25.3422 93.0234 24.0023C96.1625 26.2609 90.2289 27.7539 88.6211 26.682ZM159.901 139.038C156.302 132.836 164.265 127.094 166.945 121.887C166.6 127.974 165.834 133.984 159.901 139.038ZM173.452 68.1789C169.548 68.4852 166.026 69.4039 162.504 67.1836C154.388 58.3023 163.997 77.2133 166.677 69.4805C176.323 73.1555 166.523 89.0039 160.437 87.3578C157.03 80.0078 152.819 71.9305 145.392 68.332C151.096 74.6484 153.929 82.4195 160.054 88.1234C160.475 96.0859 168.552 85.2141 168.055 91.3773C168.82 101.981 156.073 108.336 158.293 118.978C163.04 128.663 149.144 130.424 150.713 139.114C145.124 145.354 139.152 153.776 129.123 152.436C129.123 147.153 126.443 142.674 125.83 137.238C120.395 130.348 131.573 122.959 124.644 115.762C116.643 113.963 126.29 102.938 118.059 103.972C113.121 99.0336 105.886 103.819 98.8039 103.857C89.9227 104.699 80.7734 92.9469 84.7164 84.6398C81.5773 75.9883 94.6695 73.4617 95.0141 65.8438C101.292 60.5992 110.212 61.25 118.71 60.025C118.098 66.1117 124.529 66.15 129.391 68.1789C132.109 61.5945 140.569 69.2508 146.349 65.0781C148.34 55.3547 140.722 61.2117 136.358 58.1109C131.075 50.3781 147.651 54.1297 145.928 50.0719C139.497 50.0336 143.134 42.1477 138.578 46.55C142.674 47.2773 137.851 50.493 137.966 46.818C131.764 45.0188 137.736 53.8617 134.597 54.7039C129.812 52.7133 132.07 56.9625 132.568 57.6133C130.501 62.0922 127.974 51.0289 122.117 51.3352C116.298 46.0141 119.82 53.7469 124.873 55.0102C123.802 55.3164 125.486 59.7188 124.146 57.843C119.973 52.1008 112.049 48.2727 107.341 55.3164C106.843 61.9008 93.4445 63.7766 95.5883 56.082C92.4492 48.1195 105.312 55.8523 104.125 49.4977C95.8562 44.0234 106.384 45.7844 109.178 40.6547C115.533 40.8461 109.446 35.4484 112.432 33.8789C112.126 39.7359 117.294 38.6258 121.39 37.5156C120.395 34.1469 123.84 34.2617 121.734 31.4672C131.228 27.6773 114.499 33.2281 117.868 24.9211C113.772 22.0883 116.145 31.1609 117.868 32.118C117.983 34.9125 115.609 38.3578 112.355 32.5008C107.609 35.6016 108.106 29.3617 107.8 30.0125C107.264 27.6008 111.398 27.4859 111.437 23.275C111.092 20.5953 111.169 19.1789 113.083 19.0258C113.236 19.4086 120.93 19.5234 123.648 22.7008C116.222 21.2078 122.538 23.9258 125.869 25.457C122.309 22.6625 127.285 25.457 124.376 22.2797C125.524 22.5094 121.198 17.9156 125.639 21.9352C123.227 19.0641 130.348 19.9063 126.137 17.7625C132.3 19.4852 128.663 17.9156 125.027 16.3461C114.997 10.3742 142.751 24.4234 131.42 18.1836C138.655 19.7531 115.954 12.5945 126.29 15.7336C122.347 14.0109 126.175 14.968 129.735 16.0781C123.342 14.0875 113.772 10.3742 114.155 10.2211C116.375 10.3742 118.557 10.8719 120.663 11.4844C127.209 13.4367 118.787 11.025 120.586 11.0633C143.095 16.8438 162.81 31.9266 174.792 51.6414C177.587 54.5891 185.205 74.0742 181.223 65.4227C183.023 72.3133 183.291 79.7398 184.248 86.7836C182.257 84.5633 180.037 76.3711 178.123 71.8156C177.319 73.5766 176.4 69.3273 173.452 68.1789Z" fill="white"/>
<path d="M213.766 82V33.5855H221.229L256.733 75.8137V33.5855H262.18V82H254.716L219.212 39.7718V82H213.766ZM277.581 82C276.101 82 274.734 81.6414 273.479 80.9241C272.269 80.162 271.282 79.1758 270.52 77.9655C269.803 76.7103 269.444 75.343 269.444 73.8637V59.7428H303.604V51.1357C303.604 50.4185 303.335 49.8133 302.797 49.3202C302.304 48.7822 301.698 48.5133 300.981 48.5133H269.444V42.9994H300.981C302.505 42.9994 303.873 43.3804 305.083 44.1425C306.338 44.8598 307.324 45.846 308.042 47.1012C308.804 48.3115 309.185 49.6564 309.185 51.1357V82H277.581ZM277.581 76.4861H303.604V65.2566H274.958V73.8637C274.958 74.5809 275.205 75.2085 275.698 75.7465C276.236 76.2396 276.863 76.4861 277.581 76.4861ZM315.805 82V51.1357C315.805 49.6564 316.164 48.3115 316.881 47.1012C317.643 45.846 318.629 44.8598 319.839 44.1425C321.095 43.3804 322.462 42.9994 323.941 42.9994H345.862V48.5133H323.941C323.224 48.5133 322.596 48.7822 322.058 49.3202C321.565 49.8133 321.319 50.4185 321.319 51.1357V82H315.805ZM369.647 82L348.13 42.9994H354.585L372.875 76.6206L391.165 42.9994H397.62L376.035 82H369.647ZM409.372 82C407.892 82 406.525 81.6414 405.27 80.9241C404.06 80.162 403.073 79.1758 402.311 77.9655C401.594 76.7103 401.235 75.343 401.235 73.8637V51.1357C401.235 49.6564 401.594 48.3115 402.311 47.1012C403.073 45.846 404.06 44.8598 405.27 44.1425C406.525 43.3804 407.892 42.9994 409.372 42.9994H432.772C434.296 42.9994 435.663 43.3804 436.874 44.1425C438.129 44.8598 439.115 45.846 439.833 47.1012C440.595 48.3115 440.976 49.6564 440.976 51.1357V65.2566H406.749V73.8637C406.749 74.5809 406.996 75.2085 407.489 75.7465C408.027 76.2396 408.654 76.4861 409.372 76.4861H440.976V82H409.372ZM406.749 59.7428H435.395V51.1357C435.395 50.4185 435.126 49.8133 434.588 49.3202C434.094 48.7822 433.489 48.5133 432.772 48.5133H409.372C408.654 48.5133 408.027 48.7822 407.489 49.3202C406.996 49.8133 406.749 50.4185 406.749 51.1357V59.7428ZM454.383 97.4658V91.8846H478.724C479.442 91.8846 480.047 91.6157 480.54 91.0777C481.078 90.5846 481.347 89.9794 481.347 89.2622V82H455.324C453.845 82 452.477 81.6414 451.222 80.9241C450.012 80.162 449.026 79.1758 448.264 77.9655C447.546 76.7103 447.188 75.343 447.188 73.8637V43.1339H452.702V73.8637C452.702 74.5809 452.948 75.2085 453.441 75.7465C453.979 76.2396 454.607 76.4861 455.324 76.4861H478.724C479.442 76.4861 480.047 76.2396 480.54 75.7465C481.078 75.2085 481.347 74.5809 481.347 73.8637V43.1339H486.861V89.2622C486.861 90.7863 486.502 92.1536 485.785 93.364C485.068 94.6192 484.081 95.6054 482.826 96.3226C481.616 97.0847 480.249 97.4658 478.724 97.4658H454.383ZM520.417 82C518.937 82 517.57 81.6414 516.315 80.9241C515.105 80.2069 514.141 79.2431 513.424 78.0327C512.706 76.7775 512.348 75.4102 512.348 73.9309V41.6545C512.348 40.1752 512.706 38.8304 513.424 37.62C514.141 36.3648 515.105 35.3786 516.315 34.6613C517.57 33.9441 518.937 33.5855 520.417 33.5855H552.693C554.172 33.5855 555.517 33.9441 556.728 34.6613C557.983 35.3786 558.969 36.3648 559.686 37.62C560.404 38.8304 560.762 40.1752 560.762 41.6545V73.9309C560.762 75.4102 560.404 76.7775 559.686 78.0327C558.969 79.2431 557.983 80.2069 556.728 80.9241C555.517 81.6414 554.172 82 552.693 82H520.417ZM520.417 76.5534H552.693C553.41 76.5534 554.016 76.3068 554.509 75.8137C555.047 75.2758 555.316 74.6482 555.316 73.9309V41.6545C555.316 40.9373 555.047 40.3321 554.509 39.839C554.016 39.3011 553.41 39.0321 552.693 39.0321H520.417C519.7 39.0321 519.072 39.3011 518.534 39.839C518.041 40.3321 517.794 40.9373 517.794 41.6545V73.9309C517.794 74.6482 518.041 75.2758 518.534 75.8137C519.072 76.3068 519.7 76.5534 520.417 76.5534ZM567.966 82V38.3597C567.966 36.8355 568.324 35.4682 569.041 34.2579C569.759 33.0027 570.723 32.0165 571.933 31.2992C573.188 30.582 574.578 30.2233 576.102 30.2233H590.357V35.7372H576.102C575.385 35.7372 574.757 36.0062 574.219 36.5441C573.726 37.0372 573.479 37.6424 573.479 38.3597V42.9994H590.357V48.5133H573.479V82H567.966ZM595.348 82V38.3597C595.348 36.8355 595.707 35.4682 596.424 34.2579C597.142 33.0027 598.105 32.0165 599.316 31.2992C600.571 30.582 601.961 30.2233 603.485 30.2233H617.74V35.7372H603.485C602.768 35.7372 602.14 36.0062 601.602 36.5441C601.109 37.0372 600.862 37.6424 600.862 38.3597V42.9994H617.74V48.5133H600.862V82H595.348ZM622.664 82V42.9994H628.178V82H622.664ZM622.664 35.7372V30.2233H628.178V35.7372H622.664ZM643.735 82C642.256 82 640.889 81.6414 639.633 80.9241C638.423 80.162 637.437 79.1758 636.675 77.9655C635.957 76.7103 635.599 75.343 635.599 73.8637V51.1357C635.599 49.6564 635.957 48.3115 636.675 47.1012C637.437 45.846 638.423 44.8598 639.633 44.1425C640.889 43.3804 642.256 42.9994 643.735 42.9994H675.205V48.5133H643.735C643.018 48.5133 642.39 48.7822 641.852 49.3202C641.359 49.8133 641.113 50.4185 641.113 51.1357V73.8637C641.113 74.5809 641.359 75.2085 641.852 75.7465C642.39 76.2396 643.018 76.4861 643.735 76.4861H675.339V82H643.735ZM682.421 82V42.9994H687.934V82H682.421ZM682.421 35.7372V30.2233H687.934V35.7372H682.421ZM702.18 82C700.701 82 699.333 81.6414 698.078 80.9241C696.868 80.162 695.882 79.1758 695.119 77.9655C694.402 76.7103 694.044 75.343 694.044 73.8637V59.7428H728.203V51.1357C728.203 50.4185 727.934 49.8133 727.396 49.3202C726.903 48.7822 726.297 48.5133 725.58 48.5133H694.044V42.9994H725.58C727.104 42.9994 728.472 43.3804 729.682 44.1425C730.937 44.8598 731.923 45.846 732.641 47.1012C733.403 48.3115 733.784 49.6564 733.784 51.1357V82H702.18ZM702.18 76.4861H728.203V65.2566H699.557V73.8637C699.557 74.5809 699.804 75.2085 700.297 75.7465C700.835 76.2396 701.463 76.4861 702.18 76.4861ZM748.212 82C746.733 82 745.365 81.6414 744.11 80.9241C742.9 80.162 741.914 79.1758 741.152 77.9655C740.434 76.7103 740.076 75.343 740.076 73.8637V30.2233H745.59V73.8637C745.59 74.5809 745.836 75.2085 746.329 75.7465C746.867 76.2396 747.495 76.4861 748.212 76.4861H754.802V82H748.212ZM213.967 166V117.585H252.228C253.708 117.585 255.052 117.944 256.263 118.661C257.518 119.379 258.504 120.365 259.221 121.62C259.939 122.83 260.297 124.175 260.297 125.655V135.943C260.297 136.57 260.208 137.198 260.028 137.825C259.894 138.408 259.692 138.969 259.423 139.506C260.409 140.986 261.149 142.263 261.642 143.339C262.135 144.415 262.382 145.513 262.382 146.634V157.931C262.382 159.41 262.023 160.778 261.306 162.033C260.589 163.243 259.602 164.207 258.347 164.924C257.137 165.641 255.792 166 254.313 166H213.967ZM222.036 160.553H254.313C255.03 160.553 255.635 160.307 256.128 159.814C256.666 159.276 256.935 158.648 256.935 157.931V146.634C256.935 145.917 256.666 145.312 256.128 144.819C255.635 144.281 255.03 144.012 254.313 144.012H222.036C221.319 144.012 220.692 144.281 220.154 144.819C219.66 145.312 219.414 145.917 219.414 146.634V157.931C219.414 158.648 219.66 159.276 220.154 159.814C220.692 160.307 221.319 160.553 222.036 160.553ZM222.036 138.565H252.228C252.945 138.565 253.551 138.319 254.044 137.825C254.537 137.287 254.783 136.66 254.783 135.943V125.655C254.783 124.937 254.537 124.332 254.044 123.839C253.551 123.301 252.945 123.032 252.228 123.032H222.036C221.319 123.032 220.692 123.301 220.154 123.839C219.66 124.332 219.414 124.937 219.414 125.655V135.943C219.414 136.66 219.66 137.287 220.154 137.825C220.692 138.319 221.319 138.565 222.036 138.565ZM269.444 166V135.136C269.444 133.656 269.803 132.312 270.52 131.101C271.282 129.846 272.269 128.86 273.479 128.143C274.734 127.38 276.101 126.999 277.581 126.999H299.502V132.513H277.581C276.863 132.513 276.236 132.782 275.698 133.32C275.205 133.813 274.958 134.418 274.958 135.136V166H269.444ZM311.594 166C310.115 166 308.748 165.641 307.493 164.924C306.282 164.162 305.296 163.176 304.534 161.965C303.817 160.71 303.458 159.343 303.458 157.864V135.136C303.458 133.656 303.817 132.312 304.534 131.101C305.296 129.846 306.282 128.86 307.493 128.143C308.748 127.38 310.115 126.999 311.594 126.999H334.995C336.519 126.999 337.886 127.38 339.097 128.143C340.352 128.86 341.338 129.846 342.055 131.101C342.817 132.312 343.198 133.656 343.198 135.136V157.864C343.198 159.343 342.817 160.71 342.055 161.965C341.338 163.176 340.352 164.162 339.097 164.924C337.886 165.641 336.519 166 334.995 166H311.594ZM311.594 160.486H334.995C335.712 160.486 336.317 160.24 336.81 159.746C337.348 159.209 337.617 158.581 337.617 157.864V135.136C337.617 134.418 337.348 133.813 336.81 133.32C336.317 132.782 335.712 132.513 334.995 132.513H311.594C310.877 132.513 310.25 132.782 309.712 133.32C309.218 133.813 308.972 134.418 308.972 135.136V157.864C308.972 158.581 309.218 159.209 309.712 159.746C310.25 160.24 310.877 160.486 311.594 160.486ZM357.562 166C356.083 166 354.716 165.641 353.461 164.924C352.25 164.162 351.264 163.176 350.502 161.965C349.785 160.71 349.426 159.343 349.426 157.864V143.743H383.585V135.136C383.585 134.418 383.316 133.813 382.778 133.32C382.285 132.782 381.68 132.513 380.963 132.513H349.426V126.999H380.963C382.487 126.999 383.854 127.38 385.065 128.143C386.32 128.86 387.306 129.846 388.023 131.101C388.785 132.312 389.166 133.656 389.166 135.136V166H357.562ZM357.562 160.486H383.585V149.257H354.94V157.864C354.94 158.581 355.187 159.209 355.68 159.746C356.218 160.24 356.845 160.486 357.562 160.486ZM402.368 166C400.844 166 399.455 165.641 398.199 164.924C396.989 164.162 396.003 163.176 395.241 161.965C394.524 160.71 394.165 159.343 394.165 157.864V135.136C394.165 133.656 394.524 132.312 395.241 131.101C396.003 129.846 396.989 128.86 398.199 128.143C399.455 127.38 400.844 126.999 402.368 126.999H428.391V114.223H433.905V166H402.368ZM402.368 160.486H425.769C426.486 160.486 427.091 160.24 427.584 159.746C428.122 159.209 428.391 158.581 428.391 157.864V135.136C428.391 134.418 428.122 133.813 427.584 133.32C427.091 132.782 426.486 132.513 425.769 132.513H402.368C401.651 132.513 401.024 132.782 400.486 133.32C399.993 133.813 399.746 134.418 399.746 135.136V157.864C399.746 158.581 399.993 159.209 400.486 159.746C401.024 160.24 401.651 160.486 402.368 160.486ZM449.034 166C447.555 166 446.188 165.641 444.932 164.924C443.722 164.162 442.736 163.176 441.974 161.965C441.256 160.71 440.898 159.343 440.898 157.864V135.136C440.898 133.656 441.256 132.312 441.974 131.101C442.736 129.846 443.722 128.86 444.932 128.143C446.188 127.38 447.555 126.999 449.034 126.999H480.504V132.513H449.034C448.317 132.513 447.689 132.782 447.151 133.32C446.658 133.813 446.412 134.418 446.412 135.136V157.864C446.412 158.581 446.658 159.209 447.151 159.746C447.689 160.24 448.317 160.486 449.034 160.486H480.638V166H449.034ZM495.856 166C494.377 166 493.009 165.641 491.754 164.924C490.544 164.162 489.558 163.176 488.796 161.965C488.078 160.71 487.72 159.343 487.72 157.864V143.743H521.879V135.136C521.879 134.418 521.61 133.813 521.072 133.32C520.579 132.782 519.974 132.513 519.256 132.513H487.72V126.999H519.256C520.78 126.999 522.148 127.38 523.358 128.143C524.613 128.86 525.6 129.846 526.317 131.101C527.079 132.312 527.46 133.656 527.46 135.136V166H495.856ZM495.856 160.486H521.879V149.257H493.234V157.864C493.234 158.581 493.48 159.209 493.973 159.746C494.511 160.24 495.139 160.486 495.856 160.486ZM540.962 166C539.483 166 538.116 165.641 536.861 164.924C535.65 164.162 534.664 163.176 533.902 161.965C533.185 160.71 532.826 159.343 532.826 157.864V157.326H538.34V157.864C538.34 158.581 538.587 159.209 539.08 159.746C539.618 160.24 540.245 160.486 540.962 160.486H564.363C565.08 160.486 565.685 160.24 566.178 159.746C566.716 159.209 566.985 158.581 566.985 157.864V151.879C566.985 151.162 566.716 150.557 566.178 150.064C565.685 149.526 565.08 149.257 564.363 149.257H540.962C539.483 149.257 538.116 148.898 536.861 148.181C535.65 147.419 534.664 146.432 533.902 145.222C533.185 143.967 532.826 142.6 532.826 141.12V135.136C532.826 133.656 533.185 132.312 533.902 131.101C534.664 129.846 535.65 128.86 536.861 128.143C538.116 127.38 539.483 126.999 540.962 126.999H564.363C565.887 126.999 567.254 127.38 568.465 128.143C569.72 128.86 570.706 129.846 571.423 131.101C572.185 132.312 572.566 133.656 572.566 135.136V135.674H566.985V135.136C566.985 134.418 566.716 133.813 566.178 133.32C565.685 132.782 565.08 132.513 564.363 132.513H540.962C540.245 132.513 539.618 132.782 539.08 133.32C538.587 133.813 538.34 134.418 538.34 135.136V141.12C538.34 141.838 538.587 142.465 539.08 143.003C539.618 143.496 540.245 143.743 540.962 143.743H564.363C565.887 143.743 567.254 144.124 568.465 144.886C569.72 145.603 570.706 146.589 571.423 147.845C572.185 149.055 572.566 150.4 572.566 151.879V157.864C572.566 159.343 572.185 160.71 571.423 161.965C570.706 163.176 569.72 164.162 568.465 164.924C567.254 165.641 565.887 166 564.363 166H540.962ZM587.397 166C585.872 166 584.483 165.641 583.228 164.924C582.017 164.162 581.053 163.176 580.336 161.965C579.619 160.71 579.26 159.343 579.26 157.864V114.223H584.774V126.999H601.652V132.513H584.774V157.864C584.774 158.581 585.021 159.209 585.514 159.746C586.052 160.24 586.679 160.486 587.397 160.486H601.652V166H587.397ZM633.432 166C631.953 166 630.585 165.641 629.33 164.924C628.12 164.207 627.156 163.243 626.439 162.033C625.721 160.778 625.363 159.41 625.363 157.931V125.655C625.363 124.175 625.721 122.83 626.439 121.62C627.156 120.365 628.12 119.379 629.33 118.661C630.585 117.944 631.953 117.585 633.432 117.585H673.643V123.032H633.432C632.715 123.032 632.087 123.301 631.549 123.839C631.056 124.332 630.809 124.937 630.809 125.655V157.931C630.809 158.648 631.056 159.276 631.549 159.814C632.087 160.307 632.715 160.553 633.432 160.553H673.643V166H633.432ZM680.519 166V114.223H686.033V126.999H712.123C713.603 126.999 714.948 127.38 716.158 128.143C717.413 128.86 718.399 129.846 719.117 131.101C719.879 132.312 720.26 133.656 720.26 135.136V166H714.746V135.136C714.746 134.418 714.477 133.813 713.939 133.32C713.446 132.782 712.841 132.513 712.123 132.513H688.723C688.006 132.513 687.378 132.782 686.84 133.32C686.302 133.813 686.033 134.418 686.033 135.136V166H680.519ZM733.765 166C732.286 166 730.919 165.641 729.664 164.924C728.453 164.162 727.467 163.176 726.705 161.965C725.988 160.71 725.629 159.343 725.629 157.864V143.743H759.788V135.136C759.788 134.418 759.519 133.813 758.981 133.32C758.488 132.782 757.883 132.513 757.166 132.513H725.629V126.999H757.166C758.69 126.999 760.057 127.38 761.268 128.143C762.523 128.86 763.509 129.846 764.226 131.101C764.988 132.312 765.369 133.656 765.369 135.136V166H733.765ZM733.765 160.486H759.788V149.257H731.143V157.864C731.143 158.581 731.39 159.209 731.883 159.746C732.421 160.24 733.048 160.486 733.765 160.486ZM771.467 166V126.999H803.071C804.551 126.999 805.896 127.38 807.106 128.143C808.361 128.86 809.347 129.846 810.065 131.101C810.827 132.312 811.208 133.656 811.208 135.136V166H805.694V135.136C805.694 134.418 805.425 133.813 804.887 133.32C804.394 132.782 803.789 132.513 803.071 132.513H779.671C778.954 132.513 778.326 132.782 777.788 133.32C777.25 133.813 776.981 134.418 776.981 135.136V166H771.467ZM818.288 166V126.999H849.892C851.371 126.999 852.716 127.38 853.926 128.143C855.181 128.86 856.167 129.846 856.885 131.101C857.647 132.312 858.028 133.656 858.028 135.136V166H852.514V135.136C852.514 134.418 852.245 133.813 851.707 133.32C851.214 132.782 850.609 132.513 849.892 132.513H826.491C825.774 132.513 825.146 132.782 824.608 133.32C824.07 133.813 823.801 134.418 823.801 135.136V166H818.288ZM873.042 166C871.563 166 870.196 165.641 868.941 164.924C867.73 164.162 866.744 163.176 865.982 161.965C865.265 160.71 864.906 159.343 864.906 157.864V135.136C864.906 133.656 865.265 132.312 865.982 131.101C866.744 129.846 867.73 128.86 868.941 128.143C870.196 127.38 871.563 126.999 873.042 126.999H896.443C897.967 126.999 899.334 127.38 900.544 128.143C901.8 128.86 902.786 129.846 903.503 131.101C904.265 132.312 904.646 133.656 904.646 135.136V149.257H870.42V157.864C870.42 158.581 870.666 159.209 871.16 159.746C871.697 160.24 872.325 160.486 873.042 160.486H904.646V166H873.042ZM870.42 143.743H899.065V135.136C899.065 134.418 898.796 133.813 898.258 133.32C897.765 132.782 897.16 132.513 896.443 132.513H873.042C872.325 132.513 871.697 132.782 871.16 133.32C870.666 133.813 870.42 134.418 870.42 135.136V143.743ZM918.354 166C916.874 166 915.507 165.641 914.252 164.924C913.042 164.162 912.055 163.176 911.293 161.965C910.576 160.71 910.217 159.343 910.217 157.864V114.223H915.731V157.864C915.731 158.581 915.978 159.209 916.471 159.746C917.009 160.24 917.637 160.486 918.354 160.486H924.944V166H918.354Z" fill="white"/>
</g>
<defs>
<clipPath id="clip0_1785_29">
<rect width="926" height="196" fill="white"/>
</clipPath>
</defs>
</svg>
